Coordinates
version=1
nRows=16
nColumns=40
inDegrees=yes

Units are S.I. units (second, meters, Newtons, ...)
Angles are in degrees.

endheader
time	pelvis_tilt	pelvis_list	pelvis_rotation	pelvis_tx	pelvis_ty	pelvis_tz	hip_flexion_r	hip_adduction_r	hip_rotation_r	knee_angle_r	knee_angle_r_beta	ankle_angle_r	subtalar_angle_r	mtp_angle_r	hip_flexion_l	hip_adduction_l	hip_rotation_l	knee_angle_l	knee_angle_l_beta	ankle_angle_l	subtalar_angle_l	mtp_angle_l	lumbar_extension	lumbar_bending	lumbar_rotation	arm_flex_r	arm_add_r	arm_rot_r	elbow_flex_r	pro_sup_r	wrist_flex_r	wrist_dev_r	arm_flex_l	arm_add_l	arm_rot_l	elbow_flex_l	pro_sup_l	wrist_flex_l	wrist_dev_l
     32.22250000	     -3.05129626	     -4.23769144	      4.76457260	      1.13276403	      0.93313061	      0.50286312	      9.34084420	      2.53991561	    -14.92130844	     14.17968746	     14.17968746	      9.90080863	      0.05290183	     -6.66471629	     33.04110258	    -12.80148948	     -1.29099416	     38.96553719	     38.96553719	      9.21364432	    -17.84316264	     13.05992580	    -11.99937505	      6.51220570	      2.51580594	     27.51581730	    -19.59291097	     -1.15666927	     66.45436824	     45.02334174	      0.00000000	      0.00000000	     -1.54792198	     -7.93787412	     -3.90239968	     29.27604508	     46.22336853	      0.00000000	      0.00000000
     32.23585714	     -3.05894626	     -4.31231067	      5.11584134	      1.13180543	      0.93296605	      0.50262910	      8.88000001	      2.63616021	    -15.31729925	     13.88203304	     13.88203304	      9.91780616	      0.27336898	     -7.32647708	     32.97792554	    -12.43187520	     -1.27241591	     35.12272718	     35.12272718	      8.21941372	    -17.47306343	     11.16921149	    -12.22800041	      6.62318099	      3.20669988	     27.28682704	    -20.27698848	     -2.20035740	     71.25081471	     44.92668943	      0.00000000	      0.00000000	     -1.73726203	     -7.71748677	     -3.51383659	     28.37462486	     46.14904366	      0.00000000	      0.00000000
     32.24921429	     -3.18394005	     -4.31215210	      5.38908895	      1.13078009	      0.93270475	      0.50227961	      8.60755655	      2.65074275	    -15.47806753	     13.70231380	     13.70231380	     10.08016465	      0.20802180	     -7.39025157	     33.03315294	    -11.95646390	     -1.19986789	     31.58530732	     31.58530732	      8.07107475	    -16.53187184	     11.50090684	    -12.20108733	      6.60076032	      3.12632603	     28.64121942	    -20.12386994	     -2.51014442	     72.53841190	     44.90577019	      0.00000000	      0.00000000	     -2.51921356	     -7.61636506	     -3.38509357	     27.99131043	     46.11362119	      0.00000000	      0.00000000
     32.26257143	     -3.30006420	     -4.35116692	      5.66357657	      1.12979195	      0.93234145	      0.50176994	      8.34469413	      2.68357243	    -15.68549188	     13.56673962	     13.56673962	     10.27918742	      0.24333665	     -7.48376423	     33.10906610	    -11.52441904	     -1.05986885	     28.37579830	     28.37579830	      7.86475630	    -15.23151119	     11.65165696	    -12.19251706	      6.64706521	      3.06951108	     29.87351032	    -19.98549357	     -2.80126821	     74.04319340	     44.87672445	      0.00000000	      0.00000000	     -3.28329149	     -7.46110662	     -3.26935634	     27.80724199	     46.07950436	      0.00000000	      0.00000000
     32.27592857	     -3.39343652	     -4.42074511	      5.90510387	      1.12890080	      0.93193622	      0.50116981	      8.07033952	      2.74223575	    -15.91358811	     13.46486235	     13.46486235	     10.50583364	      0.32675023	     -7.57261121	     33.18808485	    -11.16289495	     -0.92768827	     25.56358785	     25.56358785	      7.61772257	    -13.68769245	     11.68300323	    -12.21956709	      6.70758640	      3.04989122	     30.97006224	    -19.85930497	     -3.09842230	     75.64758139	     44.84458643	      0.00000000	      0.00000000	     -4.04769210	     -7.31928354	     -3.16837641	     27.77934686	     46.04696984	      0.00000000	      0.00000000
     32.28928571	     -3.48229397	     -4.52860770	      6.11541234	      1.12817829	      0.93148850	      0.50044045	      7.77143865	      2.82030465	    -16.22592689	     13.34785533	     13.34785533	     10.75760285	      0.67123233	     -7.55828450	     33.28626548	    -10.89421385	     -0.88049088	     23.18729505	     23.18729505	      7.07644333	    -11.97614504	     10.81155247	    -12.28629980	      6.83151792	      3.31216825	     31.46087065	    -19.90959135	     -3.81469697	     78.41678196	     44.80510317	      0.00000000	      0.00000000	     -4.89716385	     -7.21906327	     -2.85630522	     28.57829240	     45.97158164	      0.00000000	      0.00000000
     32.30264286	     -3.56136215	     -4.54875279	      6.27468631	      1.12752697	      0.93115338	      0.49959472	      7.48115387	      2.82160196	    -16.31176471	     13.28325632	     13.28325632	     11.02480711	      0.66696721	     -7.59096000	     33.33679251	    -10.55372854	     -0.84653309	     21.24046841	     21.24046841	      6.76904988	    -10.45878857	     10.96945744	    -12.29486196	      6.85437175	      3.35269698	     32.49181094	    -19.71917941	     -4.01911105	     79.44710509	     44.78894132	      0.00000000	      0.00000000	     -5.49489345	     -7.08520516	     -2.72403165	     28.47228188	     45.93959082	      0.00000000	      0.00000000
     32.31600000	     -3.62391004	     -4.62328188	      6.38868661	      1.12710922	      0.93079790	      0.49870723	      7.14401984	      2.88121734	    -16.40681929	     13.18505539	     13.18505539	     11.25147131	      0.81258461	     -7.57234044	     33.42803296	    -10.32770487	     -0.83777730	     19.87607807	     19.87607807	      6.46381560	     -9.02419113	     10.95890040	    -12.26144556	      6.87705797	      3.34513198	     33.40753714	    -19.45358286	     -4.22444972	     80.62170717	     44.76775063	      0.00000000	      0.00000000	     -6.12204618	     -6.94888602	     -2.62438884	     28.51016167	     45.91174967	      0.00000000	      0.00000000
     32.32935714	     -3.75415421	     -4.76624107	      6.46916000	      1.12671420	      0.93025837	      0.49768765	      6.90868004	      2.99479201	    -16.47951137	     13.12495557	     13.12495557	     11.49340474	      0.88443001	     -7.59078522	     33.67903728	    -10.16737302	     -0.74674158	     19.10788692	     19.10788692	      6.08624806	     -8.12215637	     11.00691929	    -12.14749424	      7.00665281	      3.52494024	     34.29507875	    -19.43737477	     -4.40044239	     81.32736154	     44.75727602	      0.00000000	      0.00000000	     -6.60213935	     -6.77315449	     -2.58157078	     28.51963071	     45.89553588	      0.00000000	      0.00000000
     32.34271429	     -3.75574968	     -4.79617097	      6.48336543	      1.12675361	      0.93000316	      0.49660359	      6.43116367	      3.01597448	    -16.53785356	     12.94912111	     12.94912111	     11.77153458	      1.13342106	     -7.53499273	     33.57783224	    -10.00385088	     -0.99658046	     18.55791494	     18.55791494	      5.70488617	     -7.23936406	     10.86256542	    -12.13965316	      7.00279271	      3.50202528	     34.99885269	    -18.99611598	     -4.52933059	     82.44345679	     44.73262379	      0.00000000	      0.00000000	     -7.15942529	     -6.66048164	     -2.53925257	     28.63388182	     45.87803062	      0.00000000	      0.00000000
     32.35607143	     -3.69831498	     -4.92027177	      6.45246098	      1.12718291	      0.92962327	      0.49549654	      5.85582029	      3.11589470	    -16.76743988	     12.77810593	     12.77810593	     12.29861092	      1.87117253	     -6.98828286	     33.44851291	    -10.03430075	     -1.43312106	     18.51330359	     18.51330359	      4.91685741	     -6.52352874	      9.16813802	    -12.19259360	      7.06499461	      3.76496548	     35.08191516	    -18.74557014	     -5.13134157	     84.39336085	     44.71968529	      0.00000000	      0.00000000	     -8.04904717	     -6.66730765	     -2.43316452	     30.04291562	     45.84042367	      0.00000000	      0.00000000
     32.36942857	     -3.75480948	     -4.98140970	      6.32212934	      1.12766491	      0.92907849	      0.49431309	      5.46150472	      3.15282684	    -16.62555490	     12.69796738	     12.69796738	     12.59746439	      1.98862346	     -7.03092142	     33.28695797	     -9.95677626	     -1.60775337	     18.69316526	     18.69316526	      4.54091363	     -6.60867715	      9.19313521	    -11.99371845	      7.03567982	      3.99306467	     35.54200035	    -18.59143961	     -5.15021708	     84.70008715	     44.71432707	      0.00000000	      0.00000000	     -8.38130847	     -6.55295381	     -2.39359387	     29.94749104	     45.82914106	      0.00000000	      0.00000000
     32.38278571	     -3.65110242	     -5.13628849	      6.22389663	      1.12855740	      0.92859090	      0.49300210	      4.74439016	      3.32422495	    -16.66132210	     12.37801060	     12.37801060	     12.94636559	      2.41513682	     -6.89881734	     32.90420658	     -9.99881485	     -1.72484251	     19.13521053	     19.13521053	      4.09432442	     -6.87649086	      8.73351780	    -11.98266959	      7.14869472	      3.87977749	     35.98177706	    -18.00280867	     -5.16284452	     85.51787813	     44.69823893	      0.00000000	      0.00000000	     -8.80770753	     -6.48195590	     -2.31179033	     30.02254423	     45.80982640	      0.00000000	      0.00000000
     32.39614286	     -3.59947526	     -5.26694721	      6.02491095	      1.12971483	      0.92791404	      0.49167764	      4.13831100	      3.43439242	    -16.57954431	     12.20964198	     12.20964198	     13.34198698	      2.82301474	     -6.81887374	     32.41119319	    -10.06164536	     -1.92738044	     19.64623838	     19.64623838	      3.65947346	     -7.32605735	      8.28235710	    -11.82710458	      7.17893231	      4.03901991	     36.17064071	    -17.72005881	     -5.18218262	     85.95457751	     44.69332629	      0.00000000	      0.00000000	     -9.14771888	     -6.42625196	     -2.28113703	     30.22055968	     45.79936905	      0.00000000	      0.00000000
     32.40950000	     -3.66209150	     -5.37850330	      5.75851347	      1.13102211	      0.92701967	      0.49034415	      3.72114028	      3.49543643	    -16.35612916	     12.18184775	     12.18184775	     13.74569819	      2.99478802	     -6.91201577	     31.84347779	    -10.13377544	     -2.21268387	     20.05594025	     20.05594025	      3.39200491	     -7.66582041	      8.26137590	    -11.51063677	      7.17199857	      4.25766349	     36.17795151	    -17.52860748	     -5.12979698	     86.06670256	     44.68939844	      0.00000000	      0.00000000	     -9.36981617	     -6.37880912	     -2.27783174	     30.21316342	     45.79514839	      0.00000000	      0.00000000
     32.42285714	     -3.46655023	     -5.54600795	      5.51362070	      1.13269267	      0.92627786	      0.48883555	      2.84824494	      3.64504613	    -16.39169747	     11.88216225	     11.88216225	     14.27747884	      3.79998715	     -6.45215464	     30.98980560	    -10.21932911	     -2.14808186	     20.57003480	     20.57003480	      2.72010105	     -8.66171086	      6.97586279	    -11.49021900	      7.20866275	      4.27261305	     36.10793879	    -17.10986019	     -5.15160424	     86.74390257	     44.68822854	      0.00000000	      0.00000000	     -9.78925141	     -6.39752381	     -2.28075471	     30.94401192	     45.78800309	      0.00000000	      0.00000000
